<?xml version="1.0" encoding="UTF-8"?>
<?xml-stylesheet href="https://cdnjs.cloudflare.com/ajax/libs/font-awesome/6.6.0/css/all.min.css" type="text/css"?>
<svg aria-roledescription="flowchart-v2" role="graphics-document document" viewBox="-7.5 -8 853.44140625 4074.046875" style="max-width: 100%;" xmlns="http://www.w3.org/2000/svg" width="100%" id="graph-div" height="100%" xmlns:xlink="http://www.w3.org/1999/xlink"><style>#graph-div{font-family:"trebuchet ms",verdana,arial,sans-serif;font-size:16px;fill:#333;}#graph-div .error-icon{fill:#fff8dc;}#graph-div .error-text{fill:#000723;stroke:#000723;}#graph-div .edge-thickness-normal{stroke-width:2px;}#graph-div .edge-thickness-thick{stroke-width:3.5px;}#graph-div .edge-pattern-solid{stroke-dasharray:0;}#graph-div .edge-pattern-dashed{stroke-dasharray:3;}#graph-div .edge-pattern-dotted{stroke-dasharray:2;}#graph-div .marker{fill:#666;stroke:#666;}#graph-div .marker.cross{stroke:#666;}#graph-div svg{font-family:"trebuchet ms",verdana,arial,sans-serif;font-size:16px;}#graph-div .label{font-family:"trebuchet ms",verdana,arial,sans-serif;color:#333;}#graph-div .cluster-label text{fill:#000723;}#graph-div .cluster-label span,#graph-div p{color:#000723;}#graph-div .label text,#graph-div span,#graph-div p{fill:#333;color:#333;}#graph-div .node rect,#graph-div .node circle,#graph-div .node ellipse,#graph-div .node polygon,#graph-div .node path{fill:#f4f4f4;stroke:hsl(0, 0%, 85.6862745098%);stroke-width:1px;}#graph-div .flowchart-label text{text-anchor:middle;}#graph-div .node .katex path{fill:#000;stroke:#000;stroke-width:1px;}#graph-div .node .label{text-align:center;}#graph-div .node.clickable{cursor:pointer;}#graph-div .arrowheadPath{fill:#0b0b0b;}#graph-div .edgePath .path{stroke:#666;stroke-width:2.0px;}#graph-div .flowchart-link{stroke:#666;fill:none;}#graph-div .edgeLabel{background-color:#f0f8ff;text-align:center;}#graph-div .edgeLabel rect{opacity:0.5;background-color:#f0f8ff;fill:#f0f8ff;}#graph-div .labelBkg{background-color:rgba(240, 248, 255, 0.5);}#graph-div .cluster rect{fill:#fff8dc;stroke:hsl(48, 60%, 83.137254902%);stroke-width:1px;}#graph-div .cluster text{fill:#000723;}#graph-div .cluster span,#graph-div p{color:#000723;}#graph-div div.mermaidTooltip{position:absolute;text-align:center;max-width:200px;padding:2px;font-family:"trebuchet ms",verdana,arial,sans-serif;font-size:12px;background:#fff8dc;border:1px solid hsl(48, 60%, 83.137254902%);border-radius:2px;pointer-events:none;z-index:100;}#graph-div .flowchartTitleText{text-anchor:middle;font-size:18px;fill:#333;}#graph-div :root{--mermaid-font-family:"trebuchet ms",verdana,arial,sans-serif;}</style><g><marker orient="auto" markerHeight="12" markerWidth="12" markerUnits="userSpaceOnUse" refY="5" refX="6" viewBox="0 0 10 10" class="marker flowchart" id="graph-div_flowchart-pointEnd"><path style="stroke-width: 1; stroke-dasharray: 1, 0;" class="arrowMarkerPath" d="M 0 0 L 10 5 L 0 10 z"></path></marker><marker orient="auto" markerHeight="12" markerWidth="12" markerUnits="userSpaceOnUse" refY="5" refX="4.5" viewBox="0 0 10 10" class="marker flowchart" id="graph-div_flowchart-pointStart"><path style="stroke-width: 1; stroke-dasharray: 1, 0;" class="arrowMarkerPath" d="M 0 5 L 10 10 L 10 0 z"></path></marker><marker orient="auto" markerHeight="11" markerWidth="11" markerUnits="userSpaceOnUse" refY="5" refX="11" viewBox="0 0 10 10" class="marker flowchart" id="graph-div_flowchart-circleEnd"><circle style="stroke-width: 1; stroke-dasharray: 1, 0;" class="arrowMarkerPath" r="5" cy="5" cx="5"></circle></marker><marker orient="auto" markerHeight="11" markerWidth="11" markerUnits="userSpaceOnUse" refY="5" refX="-1" viewBox="0 0 10 10" class="marker flowchart" id="graph-div_flowchart-circleStart"><circle style="stroke-width: 1; stroke-dasharray: 1, 0;" class="arrowMarkerPath" r="5" cy="5" cx="5"></circle></marker><marker orient="auto" markerHeight="11" markerWidth="11" markerUnits="userSpaceOnUse" refY="5.2" refX="12" viewBox="0 0 11 11" class="marker cross flowchart" id="graph-div_flowchart-crossEnd"><path style="stroke-width: 2; stroke-dasharray: 1, 0;" class="arrowMarkerPath" d="M 1,1 l 9,9 M 10,1 l -9,9"></path></marker><marker orient="auto" markerHeight="11" markerWidth="11" markerUnits="userSpaceOnUse" refY="5.2" refX="-1" viewBox="0 0 11 11" class="marker cross flowchart" id="graph-div_flowchart-crossStart"><path style="stroke-width: 2; stroke-dasharray: 1, 0;" class="arrowMarkerPath" d="M 1,1 l 9,9 M 10,1 l -9,9"></path></marker><g class="root"><g class="clusters"></g><g class="edgePaths"></g><g class="edgeLabels"></g><g class="nodes"><g transform="translate(57.408203125, -8)" class="root"><g class="clusters"><g id="Legend" class="cluster default flowchart-label"><rect height="172.609375" width="707.625" y="8" x="8" ry="0" rx="0" style=""></rect><g transform="translate(336.1875, 8)" class="cluster-label"><foreignObject height="24" width="51.25"><div style="display: inline-block; white-space: nowrap;" xmlns="http://www.w3.org/1999/xhtml"><span class="nodeLabel">Legend</span></div></foreignObject></g></g></g><g class="edgePaths"></g><g class="edgeLabels"></g><g class="nodes"><g transform="translate(89.171875, 94.3046875)" data-id="S" data-node="true" id="flowchart-S-150689" class="node default default flowchart-label"><circle height="39" width="92.34375" r="46.171875" ry="0" rx="0" style="fill:#e6ffe6;stroke:#28a745;stroke-width:2px;"></circle><g transform="translate(-38.671875, -12)" style="" class="label"><rect></rect><foreignObject height="24" width="77.34375"><div style="display: inline-block; white-space: nowrap;" xmlns="http://www.w3.org/1999/xhtml"><span class="nodeLabel">Start State</span></div></foreignObject></g></g><g transform="translate(211.6015625, 94.3046875)" data-id="A" data-node="true" id="flowchart-A-150690" class="node default default flowchart-label"><circle height="39" width="52.515625" r="26.2578125" ry="0" rx="0" style="fill:#f0f8ff;stroke:#333;stroke-width:2px;"></circle><g transform="translate(-18.7578125, -12)" style="" class="label"><rect></rect><foreignObject height="24" width="37.515625"><div style="display: inline-block; white-space: nowrap;" xmlns="http://www.w3.org/1999/xhtml"><span class="nodeLabel">State</span></div></foreignObject></g></g><g transform="translate(349.1640625, 94.3046875)" data-id="B" data-node="true" id="flowchart-B-150691" class="node default default flowchart-label"><polygon style="fill:#fff8dc;stroke:#333;stroke-width:1px;" transform="translate(-61.3046875,61.3046875)" class="label-container" points="61.3046875,0 122.609375,-61.3046875 61.3046875,-122.609375 0,-61.3046875"></polygon><g transform="translate(-34.3046875, -12)" style="" class="label"><rect></rect><foreignObject height="24" width="68.609375"><div style="display: inline-block; white-space: nowrap;" xmlns="http://www.w3.org/1999/xhtml"><span class="nodeLabel">Condition</span></div></foreignObject></g></g><g transform="translate(503.765625, 94.3046875)" data-id="C" data-node="true" id="flowchart-C-150692" class="node default default flowchart-label"><polygon style="fill:#e6ffe6;stroke:#28a745;stroke-width:2px;" transform="translate(-30.296875,19.5)" class="label-container" points="-13,0 54.09375,0 73.59375,-39 6.5,-39"></polygon><g transform="translate(-22.796875, -12)" style="" class="label"><rect></rect><foreignObject height="24" width="45.59375"><div style="display: inline-block; white-space: nowrap;" xmlns="http://www.w3.org/1999/xhtml"><span class="nodeLabel">Action</span></div></foreignObject></g></g><g transform="translate(638.84375, 94.3046875)" data-id="D" data-node="true" id="flowchart-D-150693" class="node default default flowchart-label"><circle height="39" width="83.5625" r="41.78125" ry="0" rx="0" style="fill:#ffe6e6;stroke:#dc3545;stroke-width:2px;"></circle><g transform="translate(-34.28125, -12)" style="" class="label"><rect></rect><foreignObject height="24" width="68.5625"><div style="display: inline-block; white-space: nowrap;" xmlns="http://www.w3.org/1999/xhtml"><span class="nodeLabel">End State</span></div></foreignObject></g></g></g></g><g transform="translate(-7.5, 214.609375)" class="root"><g class="clusters"><g id="subGraph0" class="cluster default flowchart-label"><rect height="3835.4375" width="837.44140625" y="8" x="8" ry="0" rx="0" style=""></rect><g transform="translate(318.447265625, 8)" class="cluster-label"><foreignObject height="24" width="216.546875"><div style="display: inline-block; white-space: nowrap;" xmlns="http://www.w3.org/1999/xhtml"><span class="nodeLabel">Node Shutdown State Machine</span></div></foreignObject></g></g></g><g class="edgePaths"><path marker-end="url(#graph-div_flowchart-pointEnd)" style="fill:none;" class="edge-thickness-normal edge-pattern-solid flowchart-link LS-Running LE-Prestop" id="L-Running-Prestop-0" d="M556.562,80.142L495.58,91.699C434.599,103.256,312.635,126.37,251.654,143.211C190.672,160.051,190.672,170.618,190.672,175.901L190.672,181.184"></path><path marker-end="url(#graph-div_flowchart-pointEnd)" style="fill:none;" class="edge-thickness-normal edge-pattern-solid flowchart-link LS-Running LE-WaitingOnBind" id="L-Running-WaitingOnBind-0" d="M610.744,109.49L613.489,116.156C616.234,122.821,621.724,136.153,624.47,155.362C627.215,174.57,627.215,199.656,627.215,224.742C627.215,249.828,627.215,274.914,604.472,300.382C581.728,325.849,536.242,351.698,513.499,364.623L490.756,377.547"></path><path marker-end="url(#graph-div_flowchart-pointEnd)" style="fill:none;" class="edge-thickness-normal edge-pattern-solid flowchart-link LS-Prestop LE-WaitingOnBind" id="L-Prestop-WaitingOnBind-0" d="M190.672,263L190.672,269.167C190.672,275.333,190.672,287.667,214.336,306.914C238.001,326.161,285.329,352.321,308.994,365.401L332.658,378.482"></path><path marker-end="url(#graph-div_flowchart-pointEnd)" style="fill:none;" class="edge-thickness-normal edge-pattern-solid flowchart-link LS-WaitingOnBind LE-C1" id="L-WaitingOnBind-C1-0" d="M411.969,507.641L411.969,511.807C411.969,515.974,411.969,524.307,412.035,531.841C412.101,539.374,412.233,546.108,412.299,549.475L412.365,552.842"></path><path marker-end="url(#graph-div_flowchart-pointEnd)" style="fill:none;" class="edge-thickness-normal edge-pattern-solid flowchart-link LS-C1 LE-WaitingOnChildren" id="L-C1-WaitingOnChildren-0" d="M412.469,765.156L412.385,769.24C412.302,773.323,412.135,781.49,412.052,788.856C411.969,796.223,411.969,802.79,411.969,806.073L411.969,809.356"></path><path marker-end="url(#graph-div_flowchart-pointEnd)" style="fill:none;" class="edge-thickness-normal edge-pattern-solid flowchart-link LS-WaitingOnChildren LE-C2" id="L-WaitingOnChildren-C2-0" d="M411.969,970.844L411.969,975.01C411.969,979.177,411.969,987.51,412.035,995.044C412.101,1002.577,412.233,1009.311,412.299,1012.678L412.365,1016.045"></path><path marker-end="url(#graph-div_flowchart-pointEnd)" style="fill:none;" class="edge-thickness-normal edge-pattern-solid flowchart-link LS-C2 LE-A2" id="L-C2-A2-0" d="M412.469,1215.813L412.385,1219.896C412.302,1223.979,412.135,1232.146,412.118,1239.596C412.101,1247.046,412.233,1253.78,412.299,1257.147L412.365,1260.514"></path><path marker-end="url(#graph-div_flowchart-pointEnd)" style="fill:none;" class="edge-thickness-normal edge-pattern-solid flowchart-link LS-A2 LE-WaitingOnDriver" id="L-A2-WaitingOnDriver-0" d="M412.469,1304.813L412.385,1308.896C412.302,1312.979,412.135,1321.146,412.052,1328.513C411.969,1335.879,411.969,1342.446,411.969,1345.729L411.969,1349.013"></path><path marker-end="url(#graph-div_flowchart-pointEnd)" style="fill:none;" class="edge-thickness-normal edge-pattern-solid flowchart-link LS-WaitingOnDriver LE-C3" id="L-WaitingOnDriver-C3-0" d="M411.969,1493.672L411.969,1497.839C411.969,1502.005,411.969,1510.339,412.035,1517.872C412.101,1525.406,412.233,1532.139,412.299,1535.506L412.365,1538.873"></path><path marker-end="url(#graph-div_flowchart-pointEnd)" style="fill:none;" class="edge-thickness-normal edge-pattern-solid flowchart-link LS-C3 LE-A3" id="L-C3-A3-0" d="M412.469,1774.703L412.385,1778.786C412.302,1782.87,412.135,1791.036,412.118,1798.487C412.101,1805.937,412.233,1812.67,412.299,1816.037L412.365,1819.404"></path><path marker-end="url(#graph-div_flowchart-pointEnd)" style="fill:none;" class="edge-thickness-normal edge-pattern-solid flowchart-link LS-A3 LE-WaitingOnComponent" id="L-A3-WaitingOnComponent-0" d="M412.469,1863.703L412.385,1867.786C412.302,1871.87,412.135,1880.036,412.052,1887.403C411.969,1894.77,411.969,1901.336,411.969,1904.62L411.969,1907.903"></path><path marker-end="url(#graph-div_flowchart-pointEnd)" style="fill:none;" class="edge-thickness-normal edge-pattern-solid flowchart-link LS-WaitingOnComponent LE-C4" id="L-WaitingOnComponent-C4-0" d="M411.969,2134.063L411.969,2138.229C411.969,2142.396,411.969,2150.729,412.035,2158.263C412.101,2165.796,412.233,2172.53,412.299,2175.897L412.365,2179.264"></path><path marker-end="url(#graph-div_flowchart-pointEnd)" style="fill:none;" class="edge-thickness-normal edge-pattern-solid flowchart-link LS-C4 LE-Stopped" id="L-C4-Stopped-0" d="M412.469,2491.703L412.385,2495.786C412.302,2499.87,412.135,2508.036,412.052,2515.403C411.969,2522.77,411.969,2529.336,411.969,2532.62L411.969,2535.903"></path><path marker-end="url(#graph-div_flowchart-pointEnd)" style="fill:none;" class="edge-thickness-normal edge-pattern-solid flowchart-link LS-Stopped LE-A4" id="L-Stopped-A4-0" d="M377.37,2603.006L365.312,2610.401C353.253,2617.796,329.136,2632.585,317.144,2643.347C305.152,2654.109,305.284,2660.842,305.35,2664.209L305.416,2667.576"></path><path marker-end="url(#graph-div_flowchart-pointEnd)" style="fill:none;" class="edge-thickness-normal edge-pattern-solid flowchart-link LS-A4 LE-WaitingOnDestroy" id="L-A4-WaitingOnDestroy-0" d="M305.52,2711.875L305.436,2717.958C305.353,2724.042,305.186,2736.208,305.103,2747.575C305.02,2758.942,305.02,2769.508,305.02,2774.792L305.02,2780.075"></path><path marker-end="url(#graph-div_flowchart-pointEnd)" style="fill:none;" class="edge-thickness-normal edge-pattern-solid flowchart-link LS-Stopped LE-C5" id="L-Stopped-C5-0" d="M450.988,2592.956L482.679,2602.026C514.37,2611.096,577.751,2629.235,609.442,2645.722C641.133,2662.208,641.133,2677.042,641.133,2693.875C641.133,2710.708,641.133,2729.542,641.133,2757.629C641.133,2785.716,641.133,2823.057,641.133,2858.398C641.133,2893.74,641.133,2927.081,641.133,2979.549C641.133,3032.018,641.133,3103.615,641.133,3175.211C641.133,3246.807,641.133,3318.404,641.133,3361.618C641.133,3404.833,641.133,3419.667,641.133,3434.5C641.133,3449.333,641.133,3464.167,641.199,3474.95C641.265,3485.734,641.397,3492.467,641.463,3495.834L641.529,3499.201"></path><path marker-end="url(#graph-div_flowchart-pointEnd)" style="fill:none;" class="edge-thickness-normal edge-pattern-solid flowchart-link LS-C5 LE-A5" id="L-C5-A5-0" d="M641.633,3685.109L641.549,3691.193C641.466,3697.276,641.299,3709.443,641.29,3722.628C641.281,3735.814,641.429,3750.019,641.503,3757.121L641.578,3764.224"></path><path marker-end="url(#graph-div_flowchart-pointEnd)" style="fill:none;" class="edge-thickness-normal edge-pattern-solid flowchart-link LS-WaitingOnDestroy LE-C6" id="L-WaitingOnDestroy-C6-0" d="M305.02,2935.422L305.02,2939.589C305.02,2943.755,305.02,2952.089,305.086,2959.622C305.152,2967.156,305.284,2973.889,305.35,2977.256L305.416,2980.623"></path><path marker-end="url(#graph-div_flowchart-pointEnd)" style="fill:none;" class="edge-thickness-normal edge-pattern-solid flowchart-link LS-C6 LE-A6" id="L-C6-A6-0" d="M305.52,3365.5L305.436,3369.583C305.353,3373.667,305.186,3381.833,305.169,3389.284C305.152,3396.734,305.284,3403.467,305.35,3406.834L305.416,3410.201"></path><path marker-end="url(#graph-div_flowchart-pointEnd)" style="fill:none;" class="edge-thickness-normal edge-pattern-solid flowchart-link LS-A6 LE-Destroyed" id="L-A6-Destroyed-0" d="M305.52,3454.5L305.436,3458.583C305.353,3462.667,305.186,3470.833,305.103,3485.354C305.02,3499.874,305.02,3520.748,305.02,3531.185L305.02,3541.622"></path><path marker-end="url(#graph-div_flowchart-pointEnd)" style="fill:none;" class="edge-thickness-normal edge-pattern-solid flowchart-link LS-Destroyed LE-Destructor" id="L-Destroyed-Destructor-0" d="M274.596,3630.63L261.896,3645.793C249.197,3660.957,223.798,3691.283,211.098,3711.73C198.398,3732.176,198.398,3742.743,198.398,3748.026L198.398,3753.309"></path><path marker-end="url(#graph-div_flowchart-pointEnd)" style="fill:none;" class="edge-thickness-normal edge-pattern-solid flowchart-link LS-Destroyed LE-A5" id="L-Destroyed-A5-0" d="M342.002,3623.926L362.329,3640.207C382.655,3656.487,423.308,3689.048,463.816,3713.001C504.323,3736.953,544.685,3752.297,564.866,3759.968L585.048,3767.64"></path><path marker-end="url(#graph-div_flowchart-pointEnd)" style="fill:none;" class="edge-thickness-normal edge-pattern-solid flowchart-link LS-A5 LE-Running" id="L-A5-Running-0" d="M687.367,3769.523L705.818,3761.538C724.268,3753.552,761.169,3737.581,779.62,3708.378C798.07,3679.174,798.07,3636.74,798.07,3596.305C798.07,3555.87,798.07,3517.435,798.07,3490.801C798.07,3464.167,798.07,3449.333,798.07,3434.5C798.07,3419.667,798.07,3404.833,798.07,3361.618C798.07,3318.404,798.07,3246.807,798.07,3175.211C798.07,3103.615,798.07,3032.018,798.07,2979.549C798.07,2927.081,798.07,2893.74,798.07,2858.398C798.07,2823.057,798.07,2785.716,798.07,2757.629C798.07,2729.542,798.07,2710.708,798.07,2693.875C798.07,2677.042,798.07,2662.208,798.07,2643.861C798.07,2625.513,798.07,2603.651,798.07,2581.789C798.07,2559.927,798.07,2538.065,798.07,2497.372C798.07,2456.68,798.07,2397.156,798.07,2337.633C798.07,2278.109,798.07,2218.586,798.07,2166.253C798.07,2113.919,798.07,2068.776,798.07,2023.633C798.07,1978.49,798.07,1933.346,798.07,1903.358C798.07,1873.37,798.07,1858.536,798.07,1843.703C798.07,1828.87,798.07,1814.036,798.07,1783.242C798.07,1752.448,798.07,1705.693,798.07,1658.938C798.07,1612.182,798.07,1565.427,798.07,1526.27C798.07,1487.112,798.07,1455.552,798.07,1423.992C798.07,1392.432,798.07,1360.872,798.07,1337.676C798.07,1314.479,798.07,1299.646,798.07,1284.813C798.07,1269.979,798.07,1255.146,798.07,1227.357C798.07,1199.568,798.07,1158.823,798.07,1118.078C798.07,1077.333,798.07,1036.589,798.07,999.034C798.07,961.479,798.07,927.115,798.07,892.75C798.07,858.385,798.07,824.021,798.07,785.421C798.07,746.82,798.07,703.984,798.07,661.148C798.07,618.313,798.07,575.477,798.07,535.672C798.07,495.867,798.07,459.094,798.07,420.32C798.07,381.547,798.07,340.773,798.07,307.844C798.07,274.914,798.07,249.828,798.07,224.742C798.07,199.656,798.07,174.57,771.346,151.898C744.623,129.225,691.175,108.966,664.451,98.836L637.727,88.707"></path></g><g class="edgeLabels"><g transform="translate(190.671875, 149.484375)" class="edgeLabel"><g transform="translate(-120.5546875, -12)" class="label"><foreignObject height="24" width="241.109375"><div style="display: inline-block; white-space: nowrap;" xmlns="http://www.w3.org/1999/xhtml"><span class="edgeLabel">Remove(kPackage) on Boot Driver</span></div></foreignObject></g></g><g transform="translate(627.21484375, 224.7421875)" class="edgeLabel"><g transform="translate(-133.140625, -24)" class="label"><foreignObject height="48" width="266.28125"><div style="display: inline-block; white-space: nowrap;" xmlns="http://www.w3.org/1999/xhtml"><span class="edgeLabel">Remove(kAll) OR<br/>Remove(kPackage) on Package Driver</span></div></foreignObject></g></g><g transform="translate(190.671875, 300)" class="edgeLabel"><g transform="translate(-47.2578125, -12)" class="label"><foreignObject height="24" width="94.515625"><div style="display: inline-block; white-space: nowrap;" xmlns="http://www.w3.org/1999/xhtml"><span class="edgeLabel">Remove(kAll)</span></div></foreignObject></g></g><g class="edgeLabel"><g transform="translate(0, 0)" class="label"><foreignObject height="0" width="0"><div style="display: inline-block; white-space: nowrap;" xmlns="http://www.w3.org/1999/xhtml"><span class="edgeLabel"></span></div></foreignObject></g></g><g class="edgeLabel"><g transform="translate(0, 0)" class="label"><foreignObject height="0" width="0"><div style="display: inline-block; white-space: nowrap;" xmlns="http://www.w3.org/1999/xhtml"><span class="edgeLabel"></span></div></foreignObject></g></g><g class="edgeLabel"><g transform="translate(0, 0)" class="label"><foreignObject height="0" width="0"><div style="display: inline-block; white-space: nowrap;" xmlns="http://www.w3.org/1999/xhtml"><span class="edgeLabel"></span></div></foreignObject></g></g><g class="edgeLabel"><g transform="translate(0, 0)" class="label"><foreignObject height="0" width="0"><div style="display: inline-block; white-space: nowrap;" xmlns="http://www.w3.org/1999/xhtml"><span class="edgeLabel"></span></div></foreignObject></g></g><g class="edgeLabel"><g transform="translate(0, 0)" class="label"><foreignObject height="0" width="0"><div style="display: inline-block; white-space: nowrap;" xmlns="http://www.w3.org/1999/xhtml"><span class="edgeLabel"></span></div></foreignObject></g></g><g class="edgeLabel"><g transform="translate(0, 0)" class="label"><foreignObject height="0" width="0"><div style="display: inline-block; white-space: nowrap;" xmlns="http://www.w3.org/1999/xhtml"><span class="edgeLabel"></span></div></foreignObject></g></g><g class="edgeLabel"><g transform="translate(0, 0)" class="label"><foreignObject height="0" width="0"><div style="display: inline-block; white-space: nowrap;" xmlns="http://www.w3.org/1999/xhtml"><span class="edgeLabel"></span></div></foreignObject></g></g><g class="edgeLabel"><g transform="translate(0, 0)" class="label"><foreignObject height="0" width="0"><div style="display: inline-block; white-space: nowrap;" xmlns="http://www.w3.org/1999/xhtml"><span class="edgeLabel"></span></div></foreignObject></g></g><g class="edgeLabel"><g transform="translate(0, 0)" class="label"><foreignObject height="0" width="0"><div style="display: inline-block; white-space: nowrap;" xmlns="http://www.w3.org/1999/xhtml"><span class="edgeLabel"></span></div></foreignObject></g></g><g class="edgeLabel"><g transform="translate(0, 0)" class="label"><foreignObject height="0" width="0"><div style="display: inline-block; white-space: nowrap;" xmlns="http://www.w3.org/1999/xhtml"><span class="edgeLabel"></span></div></foreignObject></g></g><g class="edgeLabel"><g transform="translate(0, 0)" class="label"><foreignObject height="0" width="0"><div style="display: inline-block; white-space: nowrap;" xmlns="http://www.w3.org/1999/xhtml"><span class="edgeLabel"></span></div></foreignObject></g></g><g transform="translate(305.01953125, 2748.375)" class="edgeLabel"><g transform="translate(-43.1640625, -12)" class="label"><foreignObject height="24" width="86.328125"><div style="display: inline-block; white-space: nowrap;" xmlns="http://www.w3.org/1999/xhtml"><span class="edgeLabel">returns true</span></div></foreignObject></g></g><g class="edgeLabel"><g transform="translate(0, 0)" class="label"><foreignObject height="0" width="0"><div style="display: inline-block; white-space: nowrap;" xmlns="http://www.w3.org/1999/xhtml"><span class="edgeLabel"></span></div></foreignObject></g></g><g class="edgeLabel"><g transform="translate(0, 0)" class="label"><foreignObject height="0" width="0"><div style="display: inline-block; white-space: nowrap;" xmlns="http://www.w3.org/1999/xhtml"><span class="edgeLabel"></span></div></foreignObject></g></g><g class="edgeLabel"><g transform="translate(0, 0)" class="label"><foreignObject height="0" width="0"><div style="display: inline-block; white-space: nowrap;" xmlns="http://www.w3.org/1999/xhtml"><span class="edgeLabel"></span></div></foreignObject></g></g><g class="edgeLabel"><g transform="translate(0, 0)" class="label"><foreignObject height="0" width="0"><div style="display: inline-block; white-space: nowrap;" xmlns="http://www.w3.org/1999/xhtml"><span class="edgeLabel"></span></div></foreignObject></g></g><g class="edgeLabel"><g transform="translate(0, 0)" class="label"><foreignObject height="0" width="0"><div style="display: inline-block; white-space: nowrap;" xmlns="http://www.w3.org/1999/xhtml"><span class="edgeLabel"></span></div></foreignObject></g></g><g transform="translate(198.3984375, 3721.609375)" class="edgeLabel"><g transform="translate(-136.0078125, -12)" class="label"><foreignObject height="24" width="272.015625"><div style="display: inline-block; white-space: nowrap;" xmlns="http://www.w3.org/1999/xhtml"><span class="edgeLabel">Intent: kRemoval / kRebindComposite</span></div></foreignObject></g></g><g transform="translate(463.9609375, 3721.609375)" class="edgeLabel"><g transform="translate(-109.5546875, -12)" class="label"><foreignObject height="24" width="219.109375"><div style="display: inline-block; white-space: nowrap;" xmlns="http://www.w3.org/1999/xhtml"><span class="edgeLabel">Intent: kRestart / kQuarantine</span></div></foreignObject></g></g><g class="edgeLabel"><g transform="translate(0, 0)" class="label"><foreignObject height="0" width="0"><div style="display: inline-block; white-space: nowrap;" xmlns="http://www.w3.org/1999/xhtml"><span class="edgeLabel"></span></div></foreignObject></g></g></g><g class="nodes"><g transform="translate(595.609375, 72.7421875)" data-id="Running" data-node="true" id="flowchart-Running-150620" class="node default default flowchart-label"><circle height="39" width="79.484375" r="39.7421875" ry="0" rx="0" style="fill:#e6ffe6;stroke:#28a745;stroke-width:2px;"></circle><g transform="translate(-32.2421875, -12)" style="" class="label"><rect></rect><foreignObject height="24" width="64.484375"><div style="display: inline-block; white-space: nowrap;" xmlns="http://www.w3.org/1999/xhtml"><span class="nodeLabel">kRunning</span></div></foreignObject></g></g><g transform="translate(190.671875, 224.7421875)" data-id="Prestop" data-node="true" id="flowchart-Prestop-150621" class="node default default flowchart-label"><circle height="39" width="76.515625" r="38.2578125" ry="0" rx="0" style="fill:#f0f8ff;stroke:#333;stroke-width:2px;"></circle><g transform="translate(-30.7578125, -12)" style="" class="label"><rect></rect><foreignObject height="24" width="61.515625"><div style="display: inline-block; white-space: nowrap;" xmlns="http://www.w3.org/1999/xhtml"><span class="nodeLabel">kPrestop</span></div></foreignObject></g></g><g transform="translate(411.96875, 422.3203125)" data-id="WaitingOnBind" data-node="true" id="flowchart-WaitingOnBind-150622" class="node default default flowchart-label"><circle height="39" width="170.640625" r="85.3203125" ry="0" rx="0" style="fill:#f0f8ff;stroke:#333;stroke-width:2px;"></circle><g transform="translate(-77.8203125, -12)" style="" class="label"><rect></rect><foreignObject height="24" width="155.640625"><div style="display: inline-block; white-space: nowrap;" xmlns="http://www.w3.org/1999/xhtml"><span class="nodeLabel">kWaitingOnDriverBind</span></div></foreignObject></g></g><g transform="translate(411.96875, 661.1484375)" data-id="C1" data-node="true" id="flowchart-C1-150645" class="node default default flowchart-label"><polygon style="fill:#fff8dc;stroke:#333;stroke-width:1px;" transform="translate(-103.5078125,103.5078125)" class="label-container" points="103.5078125,0 207.015625,-103.5078125 103.5078125,-207.015625 0,-103.5078125"></polygon><g transform="translate(-76.5078125, -12)" style="" class="label"><rect></rect><foreignObject height="24" width="153.015625"><div style="display: inline-block; white-space: nowrap;" xmlns="http://www.w3.org/1999/xhtml"><span class="nodeLabel">IsPendingBind is false</span></div></foreignObject></g></g><g transform="translate(411.96875, 892.75)" data-id="WaitingOnChildren" data-node="true" id="flowchart-WaitingOnChildren-150623" class="node default default flowchart-label"><circle height="39" width="156.1875" r="78.09375" ry="0" rx="0" style="fill:#f0f8ff;stroke:#333;stroke-width:2px;"></circle><g transform="translate(-70.59375, -12)" style="" class="label"><rect></rect><foreignObject height="24" width="141.1875"><div style="display: inline-block; white-space: nowrap;" xmlns="http://www.w3.org/1999/xhtml"><span class="nodeLabel">kWaitingOnChildren</span></div></foreignObject></g></g><g transform="translate(411.96875, 1118.078125)" data-id="C2" data-node="true" id="flowchart-C2-150646" class="node default default flowchart-label"><polygon style="fill:#fff8dc;stroke:#333;stroke-width:1px;" transform="translate(-97.234375,97.234375)" class="label-container" points="97.234375,0 194.46875,-97.234375 97.234375,-194.46875 0,-97.234375"></polygon><g transform="translate(-70.234375, -12)" style="" class="label"><rect></rect><foreignObject height="24" width="140.46875"><div style="display: inline-block; white-space: nowrap;" xmlns="http://www.w3.org/1999/xhtml"><span class="nodeLabel">HasChildren is false</span></div></foreignObject></g></g><g transform="translate(411.96875, 1284.8125)" data-id="A2" data-node="true" id="flowchart-A2-150640" class="node default default flowchart-label"><polygon style="fill:#e6ffe6;stroke:#28a745;stroke-width:2px;" transform="translate(-73.1015625,19.5)" class="label-container" points="-13,0 139.703125,0 159.203125,-39 6.5,-39"></polygon><g transform="translate(-65.6015625, -12)" style="" class="label"><rect></rect><foreignObject height="24" width="131.203125"><div style="display: inline-block; white-space: nowrap;" xmlns="http://www.w3.org/1999/xhtml"><span class="nodeLabel">Action: StopDriver</span></div></foreignObject></g></g><g transform="translate(411.96875, 1423.9921875)" data-id="WaitingOnDriver" data-node="true" id="flowchart-WaitingOnDriver-150624" class="node default default flowchart-label"><circle height="39" width="139.359375" r="69.6796875" ry="0" rx="0" style="fill:#f0f8ff;stroke:#333;stroke-width:2px;"></circle><g transform="translate(-62.1796875, -12)" style="" class="label"><rect></rect><foreignObject height="24" width="124.359375"><div style="display: inline-block; white-space: nowrap;" xmlns="http://www.w3.org/1999/xhtml"><span class="nodeLabel">kWaitingOnDriver</span></div></foreignObject></g></g><g transform="translate(411.96875, 1658.9375)" data-id="C3" data-node="true" id="flowchart-C3-150647" class="node default default flowchart-label"><polygon style="fill:#fff8dc;stroke:#333;stroke-width:1px;" transform="translate(-115.265625,115.265625)" class="label-container" points="115.265625,0 230.53125,-115.265625 115.265625,-230.53125 0,-115.265625"></polygon><g transform="translate(-64.265625, -36)" style="" class="label"><rect></rect><foreignObject height="72" width="128.53125"><div style="display: inline-block; white-space: nowrap;" xmlns="http://www.w3.org/1999/xhtml"><span class="nodeLabel">HasDriver is false<br/>or<br/>Driver FIDL closed</span></div></foreignObject></g></g><g transform="translate(411.96875, 1843.703125)" data-id="A3" data-node="true" id="flowchart-A3-150641" class="node default default flowchart-label"><polygon style="fill:#e6ffe6;stroke:#28a745;stroke-width:2px;" transform="translate(-113.8515625,19.5)" class="label-container" points="-13,0 221.203125,0 240.703125,-39 6.5,-39"></polygon><g transform="translate(-106.3515625, -12)" style="" class="label"><rect></rect><foreignObject height="24" width="212.703125"><div style="display: inline-block; white-space: nowrap;" xmlns="http://www.w3.org/1999/xhtml"><span class="nodeLabel">Action: StopDriverComponent</span></div></foreignObject></g></g><g transform="translate(411.96875, 2023.6328125)" data-id="WaitingOnComponent" data-node="true" id="flowchart-WaitingOnComponent-150625" class="node default default flowchart-label"><circle height="39" width="220.859375" r="110.4296875" ry="0" rx="0" style="fill:#f0f8ff;stroke:#333;stroke-width:2px;"></circle><g transform="translate(-102.9296875, -12)" style="" class="label"><rect></rect><foreignObject height="24" width="205.859375"><div style="display: inline-block; white-space: nowrap;" xmlns="http://www.w3.org/1999/xhtml"><span class="nodeLabel">kWaitingOnDriverComponent</span></div></foreignObject></g></g><g transform="translate(411.96875, 2337.6328125)" data-id="C4" data-node="true" id="flowchart-C4-150648" class="node default default flowchart-label"><polygon style="fill:#fff8dc;stroke:#333;stroke-width:1px;" transform="translate(-153.5703125,153.5703125)" class="label-container" points="153.5703125,0 307.140625,-153.5703125 153.5703125,-307.140625 0,-153.5703125"></polygon><g transform="translate(-102.5703125, -36)" style="" class="label"><rect></rect><foreignObject height="72" width="205.140625"><div style="display: inline-block; white-space: nowrap;" xmlns="http://www.w3.org/1999/xhtml"><span class="nodeLabel">HasDriverComponent is false<br/>or<br/>Runner controller closed</span></div></foreignObject></g></g><g transform="translate(411.96875, 2581.7890625)" data-id="Stopped" data-node="true" id="flowchart-Stopped-150626" class="node default default flowchart-label"><circle height="39" width="81.171875" r="40.5859375" ry="0" rx="0" style="fill:#f0f8ff;stroke:#333;stroke-width:2px;"></circle><g transform="translate(-33.0859375, -12)" style="" class="label"><rect></rect><foreignObject height="24" width="66.171875"><div style="display: inline-block; white-space: nowrap;" xmlns="http://www.w3.org/1999/xhtml"><span class="nodeLabel">kStopped</span></div></foreignObject></g></g><g transform="translate(305.01953125, 2691.875)" data-id="A4" data-node="true" id="flowchart-A4-150642" class="node default default flowchart-label"><polygon style="fill:#e6ffe6;stroke:#28a745;stroke-width:2px;" transform="translate(-147.75,19.5)" class="label-container" points="-13,0 289,0 308.5,-39 6.5,-39"></polygon><g transform="translate(-140.25, -12)" style="" class="label"><rect></rect><foreignObject height="24" width="280.5"><div style="display: inline-block; white-space: nowrap;" xmlns="http://www.w3.org/1999/xhtml"><span class="nodeLabel">Action: MaybeDestroyDriverComponent</span></div></foreignObject></g></g><g transform="translate(305.01953125, 2860.3984375)" data-id="WaitingOnDestroy" data-node="true" id="flowchart-WaitingOnDestroy-150627" class="node default default flowchart-label"><circle height="39" width="150.046875" r="75.0234375" ry="0" rx="0" style="fill:#f0f8ff;stroke:#333;stroke-width:2px;"></circle><g transform="translate(-67.5234375, -12)" style="" class="label"><rect></rect><foreignObject height="24" width="135.046875"><div style="display: inline-block; white-space: nowrap;" xmlns="http://www.w3.org/1999/xhtml"><span class="nodeLabel">kWaitingOnDestroy</span></div></foreignObject></g></g><g transform="translate(641.1328125, 3594.3046875)" data-id="C5" data-node="true" id="flowchart-C5-150649" class="node default default flowchart-label"><polygon style="fill:#fff8dc;stroke:#333;stroke-width:1px;" transform="translate(-90.3046875,90.3046875)" class="label-container" points="90.3046875,0 180.609375,-90.3046875 90.3046875,-180.609375 0,-90.3046875"></polygon><g transform="translate(-63.3046875, -12)" style="" class="label"><rect></rect><foreignObject height="24" width="126.609375"><div style="display: inline-block; white-space: nowrap;" xmlns="http://www.w3.org/1999/xhtml"><span class="nodeLabel">StartDriver called</span></div></foreignObject></g></g><g transform="translate(641.1328125, 3788.5234375)" data-id="A5" data-node="true" id="flowchart-A5-150643" class="node default default flowchart-label"><polygon style="fill:#e6ffe6;stroke:#28a745;stroke-width:2px;" transform="translate(-89.953125,19.5)" class="label-container" points="-13,0 173.40625,0 192.90625,-39 6.5,-39"></polygon><g transform="translate(-82.453125, -12)" style="" class="label"><rect></rect><foreignObject height="24" width="164.90625"><div style="display: inline-block; white-space: nowrap;" xmlns="http://www.w3.org/1999/xhtml"><span class="nodeLabel">Action: ResetShutdown</span></div></foreignObject></g></g><g transform="translate(305.01953125, 3175.2109375)" data-id="C6" data-node="true" id="flowchart-C6-150650" class="node default default flowchart-label"><polygon style="fill:#fff8dc;stroke:#333;stroke-width:1px;" transform="translate(-189.7890625,189.7890625)" class="label-container" points="189.7890625,0 379.578125,-189.7890625 189.7890625,-379.578125 0,-189.7890625"></polygon><g transform="translate(-138.7890625, -36)" style="" class="label"><rect></rect><foreignObject height="72" width="277.578125"><div style="display: inline-block; white-space: nowrap;" xmlns="http://www.w3.org/1999/xhtml"><span class="nodeLabel">HasDriverComponentController is false<br/>or<br/>Controller closed</span></div></foreignObject></g></g><g transform="translate(305.01953125, 3434.5)" data-id="A6" data-node="true" id="flowchart-A6-150644" class="node default default flowchart-label"><polygon style="fill:#e6ffe6;stroke:#28a745;stroke-width:2px;" transform="translate(-91.2265625,19.5)" class="label-container" points="-13,0 175.953125,0 195.453125,-39 6.5,-39"></polygon><g transform="translate(-83.7265625, -12)" style="" class="label"><rect></rect><foreignObject height="24" width="167.453125"><div style="display: inline-block; white-space: nowrap;" xmlns="http://www.w3.org/1999/xhtml"><span class="nodeLabel">Action: FinishShutdown</span></div></foreignObject></g></g><g transform="translate(305.01953125, 3594.3046875)" data-id="Destroyed" data-node="true" id="flowchart-Destroyed-150628" class="node default default flowchart-label"><circle height="39" width="94.765625" r="47.3828125" ry="0" rx="0" style="fill:#f0f8ff;stroke:#333;stroke-width:2px;"></circle><g transform="translate(-39.8828125, -12)" style="" class="label"><rect></rect><foreignObject height="24" width="79.765625"><div style="display: inline-block; white-space: nowrap;" xmlns="http://www.w3.org/1999/xhtml"><span class="nodeLabel">kDestroyed</span></div></foreignObject></g></g><g transform="translate(198.3984375, 3788.5234375)" data-id="Destructor" data-node="true" id="flowchart-Destructor-150629" class="node default default flowchart-label"><circle height="39" width="59.828125" r="29.9140625" ry="0" rx="0" style="fill:#ffe6e6;stroke:#dc3545;stroke-width:2px;"></circle><g transform="translate(-22.4140625, -12)" style="" class="label"><rect></rect><foreignObject height="24" width="44.828125"><div style="display: inline-block; white-space: nowrap;" xmlns="http://www.w3.org/1999/xhtml"><span class="nodeLabel">~Node</span></div></foreignObject></g></g></g></g></g></g></g></svg>